<svg width="40" height="40" viewBox="0 0 40 40" fill="none" xmlns="http://www.w3.org/2000/svg">
<rect width="40" height="40" rx="20" fill="url(#paint0_linear_33_2557)"/>
<path d="M28.3125 15.125H29.1875V23.875H28.3125V26.5C28.3125 26.745 28.2279 26.9521 28.0588 27.1213C27.8896 27.2904 27.6825 27.375 27.4375 27.375H11.6875C11.4425 27.375 11.2354 27.2904 11.0662 27.1213C10.8971 26.9521 10.8125 26.745 10.8125 26.5V12.5C10.8125 12.255 10.8971 12.0479 11.0662 11.8787C11.2354 11.7096 11.4425 11.625 11.6875 11.625H27.4375C27.6825 11.625 27.8896 11.7096 28.0588 11.8787C28.2279 12.0479 28.3125 12.255 28.3125 12.5V15.125ZM26.5625 23.875H21.3125C20.5192 23.875 19.7871 23.6796 19.1163 23.2888C18.4454 22.8979 17.9146 22.3671 17.5237 21.6962C17.1329 21.0254 16.9375 20.2933 16.9375 19.5C16.9375 18.7067 17.1329 17.9746 17.5237 17.3038C17.9146 16.6329 18.4454 16.1021 19.1163 15.7113C19.7871 15.3204 20.5192 15.125 21.3125 15.125H26.5625V13.375H12.5625V25.625H26.5625V23.875ZM27.4375 22.125V16.875H21.3125C20.8342 16.875 20.3938 16.9917 19.9913 17.225C19.5887 17.4583 19.2708 17.7762 19.0375 18.1788C18.8042 18.5813 18.6875 19.0217 18.6875 19.5C18.6875 19.9783 18.8042 20.4187 19.0375 20.8212C19.2708 21.2238 19.5887 21.5417 19.9913 21.775C20.3938 22.0083 20.8342 22.125 21.3125 22.125H27.4375ZM21.3125 18.625H23.9375V20.375H21.3125V18.625Z" fill="white"/>
<defs>
<linearGradient id="paint0_linear_33_2557" x1="-6.92366e-08" y1="1.78771" x2="37.7654" y2="38.2123" gradientUnits="userSpaceOnUse">
<stop stop-color="#19CBCB"/>
<stop offset="1" stop-color="#048EC3"/>
</linearGradient>
</defs>
</svg>
