<svg width="16" height="16" viewBox="0 0 16 16" fill="none" xmlns="http://www.w3.org/2000/svg">
<path d="M3.20833 0.5C2.49004 0.5 1.80116 0.785341 1.29325 1.29325C0.785341 1.80116 0.5 2.49004 0.5 3.20833V12.7917C0.5 13.51 0.785341 14.1988 1.29325 14.7067C1.80116 15.2147 2.49004 15.5 3.20833 15.5H12.7917C13.51 15.5 14.1988 15.2147 14.7067 14.7067C15.2147 14.1988 15.5 13.51 15.5 12.7917V3.20833C15.5 2.49004 15.2147 1.80116 14.7067 1.29325C14.1988 0.785341 13.51 0.5 12.7917 0.5H3.20833Z" fill="#048EC3"/>
<path d="M12.4001 5.73334L6.77178 11.3558C6.6546 11.4729 6.49574 11.5386 6.33012 11.5386C6.16449 11.5386 6.00564 11.4729 5.88845 11.3558L3.60012 9.06667C3.48972 8.94819 3.42961 8.79149 3.43247 8.62957C3.43533 8.46765 3.50092 8.31317 3.61543 8.19866C3.72994 8.08415 3.88443 8.01855 4.04635 8.01569C4.20827 8.01284 4.36497 8.07294 4.48345 8.18334L6.33095 10.03L11.5168 4.84917C11.5749 4.79117 11.6439 4.74519 11.7197 4.71384C11.7956 4.68249 11.8769 4.6664 11.959 4.66647C12.0411 4.66655 12.1224 4.6828 12.1982 4.71429C12.2741 4.74578 12.3429 4.7919 12.401 4.85001C12.459 4.90812 12.5049 4.97708 12.5363 5.05296C12.5676 5.12885 12.5837 5.21016 12.5837 5.29226C12.5836 5.37437 12.5673 5.45565 12.5358 5.53147C12.5043 5.6073 12.4582 5.67617 12.4001 5.73417" fill="url(#paint0_linear_15_288)"/>
<defs>
<linearGradient id="paint0_linear_15_288" x1="5.18012" y1="5.19501" x2="9.22262" y2="18.2608" gradientUnits="userSpaceOnUse">
<stop stop-color="white"/>
<stop offset="1" stop-color="#B3E0FF"/>
</linearGradient>
</defs>
</svg>
