<svg width="20" height="20" viewBox="0 0 20 20" fill="none" xmlns="http://www.w3.org/2000/svg">
<path d="M10 15C9.56337 15.0001 9.14039 14.8478 8.80402 14.5694C8.46766 14.291 8.239 13.904 8.1575 13.475C6.93141 13.0961 5.85168 12.3489 5.065 11.335C4.47111 10.5702 4.06303 9.67791 3.87296 8.72846C3.68289 7.779 3.71602 6.79837 3.96975 5.86391C4.22347 4.92945 4.69085 4.06672 5.33501 3.34378C5.97918 2.62083 6.7825 2.05745 7.68163 1.69806C8.58076 1.33867 9.5511 1.1931 10.5161 1.27285C11.4811 1.3526 12.4144 1.65547 13.2423 2.15758C14.0703 2.65969 14.7702 3.34731 15.287 4.16619C15.8037 4.98507 16.1231 5.91281 16.22 6.87625C16.2537 7.22 15.97 7.5 15.625 7.5C15.28 7.5 15.0038 7.21875 14.9625 6.87625C14.8509 5.99229 14.5052 5.15419 13.9611 4.44868C13.4169 3.74317 12.6941 3.19587 11.8675 2.86342C11.0409 2.53097 10.1405 2.42544 9.25936 2.55774C8.37827 2.69005 7.54853 3.05539 6.85601 3.61596C6.16348 4.17653 5.63332 4.91197 5.32039 5.74618C5.00746 6.58039 4.92312 7.48307 5.0761 8.36081C5.22909 9.23855 5.61383 10.0595 6.19052 10.7386C6.76722 11.4178 7.51491 11.9305 8.35625 12.2237C8.51531 11.9336 8.74833 11.6907 9.03165 11.5197C9.31497 11.3487 9.63849 11.2557 9.96936 11.2503C10.3002 11.2448 10.6267 11.3269 10.9155 11.4884C11.2043 11.6499 11.4453 11.885 11.6139 12.1697C11.7824 12.4545 11.8727 12.7788 11.8754 13.1097C11.8781 13.4406 11.7932 13.7663 11.6293 14.0538C11.4653 14.3412 11.2283 14.5802 10.9421 14.7464C10.656 14.9126 10.3309 15.0001 10 15ZM5 13.125V13.0912C4.65821 12.7851 4.34523 12.4483 4.065 12.085C3.85964 12.393 3.75004 12.7548 3.75 13.125V13.75C3.75 16.2137 6.075 18.75 10 18.75C13.925 18.75 16.25 16.2137 16.25 13.75V13.125C16.25 12.6277 16.0525 12.1508 15.7008 11.7992C15.3492 11.4475 14.8723 11.25 14.375 11.25H12.5C12.7738 11.6125 12.9688 12.0375 13.0625 12.5H14.375C14.5408 12.5 14.6997 12.5658 14.8169 12.6831C14.9342 12.8003 15 12.9592 15 13.125V13.75C15 15.5475 13.21 17.5 10 17.5C6.79 17.5 5 15.5475 5 13.75V13.125ZM10 10C9.28477 9.99997 8.59117 10.2453 8.035 10.695C7.48849 10.3602 7.03727 9.89045 6.72467 9.33093C6.41208 8.77141 6.24862 8.14091 6.25 7.5C6.25018 6.84622 6.42129 6.20385 6.74634 5.63661C7.07138 5.06936 7.53908 4.59695 8.10304 4.26623C8.667 3.93552 9.30763 3.75799 9.96137 3.75125C10.6151 3.74452 11.2593 3.90881 11.8299 4.22784C12.4006 4.54687 12.8779 5.00954 13.2146 5.56997C13.5512 6.13039 13.7355 6.7691 13.7492 7.42274C13.7628 8.07637 13.6054 8.72222 13.2924 9.29622C12.9794 9.87022 12.5218 10.3524 11.965 10.695C11.4088 10.2453 10.7152 9.99997 10 10ZM7.5 7.5C7.5 8.16304 7.76339 8.79892 8.23223 9.26776C8.70107 9.73661 9.33696 10 10 10C10.663 10 11.2989 9.73661 11.7678 9.26776C12.2366 8.79892 12.5 8.16304 12.5 7.5C12.5 6.83696 12.2366 6.20107 11.7678 5.73223C11.2989 5.26339 10.663 5 10 5C9.33696 5 8.70107 5.26339 8.23223 5.73223C7.76339 6.20107 7.5 6.83696 7.5 7.5Z" fill="#048EC3"/>
</svg>
