<svg width="25" height="24" viewBox="0 0 25 24" fill="none" xmlns="http://www.w3.org/2000/svg">
<path d="M20.25 14.25V11.625C20.25 10.7299 19.8944 9.87145 19.2615 9.23851C18.6286 8.60558 17.7701 8.25 16.875 8.25H15.375C15.0766 8.25 14.7905 8.13147 14.5795 7.9205C14.3685 7.70952 14.25 7.42337 14.25 7.125V5.625C14.25 4.72989 13.8944 3.87145 13.2615 3.23851C12.6285 2.60558 11.7701 2.25 10.875 2.25H9M9.75 16.5V17.25M12.75 14.25V17.25M15.75 12V17.25M11.25 2.25H6.375C5.754 2.25 5.25 2.754 5.25 3.375V20.625C5.25 21.246 5.754 21.75 6.375 21.75H19.125C19.746 21.75 20.25 21.246 20.25 20.625V11.25C20.25 8.86305 19.3018 6.57387 17.614 4.88604C15.9261 3.19821 13.6369 2.25 11.25 2.25Z" stroke="#555555" stroke-opacity="0.6" stroke-width="1.5" stroke-linecap="round" stroke-linejoin="round"/>
</svg>
