<svg width="40" height="40" viewBox="0 0 40 40" fill="none" xmlns="http://www.w3.org/2000/svg">
<rect width="40" height="40" rx="10" fill="#002D62"/>
<path fill-rule="evenodd" clip-rule="evenodd" d="M16.603 11.799C17.025 11.3122 17.5467 10.922 18.1329 10.6547C18.719 10.3874 19.3558 10.2494 20 10.25C21.357 10.25 22.573 10.85 23.397 11.799C24.0397 11.7531 24.6847 11.8461 25.2883 12.0716C25.8919 12.2971 26.4399 12.6499 26.895 13.106C27.3509 13.5611 27.7036 14.1089 27.9291 14.7123C28.1546 15.3156 28.2477 15.9605 28.202 16.603C28.6886 17.0251 29.0787 17.5469 29.3458 18.133C29.6129 18.7191 29.7507 19.3559 29.75 20C29.7506 20.6442 29.6126 21.281 29.3453 21.8671C29.078 22.4533 28.6878 22.975 28.201 23.397C28.2467 24.0395 28.1536 24.6844 27.9281 25.2877C27.7026 25.8911 27.3499 26.4389 26.894 26.894C26.4389 27.3499 25.8911 27.7026 25.2877 27.9281C24.6844 28.1536 24.0395 28.2467 23.397 28.201C22.975 28.6878 22.4533 29.078 21.8671 29.3453C21.281 29.6126 20.6442 29.7506 20 29.75C19.3558 29.7506 18.719 29.6126 18.1329 29.3453C17.5467 29.078 17.025 28.6878 16.603 28.201C15.9604 28.247 15.3154 28.1542 14.7118 27.9289C14.1082 27.7035 13.5602 27.3509 13.105 26.895C12.649 26.4398 12.2962 25.8919 12.0707 25.2883C11.8452 24.6847 11.7522 24.0397 11.798 23.397C11.3114 22.9749 10.9213 22.4531 10.6542 21.867C10.3871 21.2809 10.2493 20.6441 10.25 20C10.25 18.643 10.85 17.427 11.799 16.603C11.7533 15.9605 11.8463 15.3156 12.0718 14.7122C12.2973 14.1088 12.65 13.561 13.106 13.106C13.561 12.65 14.1088 12.2973 14.7122 12.0718C15.3156 11.8463 15.9605 11.7533 16.603 11.799ZM23.61 18.186C23.67 18.1061 23.7134 18.0149 23.7377 17.918C23.762 17.821 23.7666 17.7201 23.7514 17.6214C23.7361 17.5226 23.7013 17.4278 23.6489 17.3427C23.5965 17.2576 23.5276 17.1838 23.4463 17.1257C23.3649 17.0675 23.2728 17.0262 23.1753 17.0042C23.0778 16.9822 22.9769 16.9799 22.8785 16.9975C22.7801 17.015 22.6862 17.0521 22.6023 17.1064C22.5184 17.1608 22.4462 17.2314 22.39 17.314L19.154 21.844L17.53 20.22C17.3878 20.0875 17.1998 20.0154 17.0055 20.0188C16.8112 20.0223 16.6258 20.101 16.4884 20.2384C16.351 20.3758 16.2723 20.5612 16.2688 20.7555C16.2654 20.9498 16.3375 21.1378 16.47 21.28L18.72 23.53C18.797 23.6069 18.8898 23.6662 18.992 23.7036C19.0942 23.7411 19.2033 23.7559 19.3118 23.7469C19.4202 23.738 19.5255 23.7055 19.6201 23.6519C19.7148 23.5982 19.7967 23.5245 19.86 23.436L23.61 18.186Z" fill="white"/>
</svg>
