<svg width="25" height="24" viewBox="0 0 25 24" fill="none" xmlns="http://www.w3.org/2000/svg">
<path d="M20 14.25V11.625C20 10.7299 19.6444 9.87145 19.0115 9.23851C18.3786 8.60558 17.5201 8.25 16.625 8.25H15.125C14.8266 8.25 14.5405 8.13147 14.3295 7.9205C14.1185 7.70952 14 7.42337 14 7.125V5.625C14 4.72989 13.6444 3.87145 13.0115 3.23851C12.3785 2.60558 11.5201 2.25 10.625 2.25H8.75M9.5 16.5V17.25M12.5 14.25V17.25M15.5 12V17.25M11 2.25H6.125C5.504 2.25 5 2.754 5 3.375V20.625C5 21.246 5.504 21.75 6.125 21.75H18.875C19.496 21.75 20 21.246 20 20.625V11.25C20 8.86305 19.0518 6.57387 17.364 4.88604C15.6761 3.19821 13.3869 2.25 11 2.25Z" stroke="url(#paint0_linear_2021_145)" stroke-width="1.5" stroke-linecap="round" stroke-linejoin="round"/>
<defs>
<linearGradient id="paint0_linear_2021_145" x1="5" y1="3.12151" x2="22.6312" y2="16.2025" gradientUnits="userSpaceOnUse">
<stop stop-color="#19CBCB"/>
<stop offset="1" stop-color="#048EC3"/>
</linearGradient>
</defs>
</svg>
