<svg width="40" height="40" viewBox="0 0 40 40" fill="none" xmlns="http://www.w3.org/2000/svg">
<rect width="40" height="40" rx="8" fill="#048EC3"/>
<path d="M22.5 17.25H10C9.59 17.25 9.25 16.91 9.25 16.5C9.25 16.09 9.59 15.75 10 15.75H22.5C22.91 15.75 23.25 16.09 23.25 16.5C23.25 16.91 22.91 17.25 22.5 17.25ZM16 25.25H14C13.59 25.25 13.25 24.91 13.25 24.5C13.25 24.09 13.59 23.75 14 23.75H16C16.41 23.75 16.75 24.09 16.75 24.5C16.75 24.91 16.41 25.25 16 25.25ZM22.5 25.25H18.5C18.09 25.25 17.75 24.91 17.75 24.5C17.75 24.09 18.09 23.75 18.5 23.75H22.5C22.91 23.75 23.25 24.09 23.25 24.5C23.25 24.91 22.91 25.25 22.5 25.25Z" fill="white"/>
<path d="M25.56 29.25H14.44C10.46 29.25 9.25 28.05 9.25 24.11V15.89C9.25 11.95 10.46 10.75 14.44 10.75H22.5C22.91 10.75 23.25 11.09 23.25 11.5C23.25 11.91 22.91 12.25 22.5 12.25H14.44C11.3 12.25 10.75 12.79 10.75 15.89V24.1C10.75 27.2 11.3 27.74 14.44 27.74H25.55C28.69 27.74 29.24 27.2 29.24 24.1V22.02C29.24 21.61 29.58 21.27 29.99 21.27C30.4 21.27 30.74 21.61 30.74 22.02V24.1C30.75 28.05 29.54 29.25 25.56 29.25Z" fill="white"/>
<path d="M28 10.75C28.1987 10.7508 28.389 10.8301 28.5295 10.9705C28.6699 11.111 28.7492 11.3013 28.75 11.5L28.75 17.5C28.75 17.91 28.41 18.25 28 18.25C27.59 18.25 27.25 17.91 27.25 17.5L27.25 13.31L26.53 14.03C26.24 14.32 25.76 14.32 25.47 14.03C25.18 13.74 25.18 13.26 25.47 12.97L27.47 10.97C27.6105 10.8293 27.8012 10.7502 28 10.75Z" fill="white"/>
<path d="M28 10.7501C28.19 10.7501 28.38 10.8201 28.53 10.9701L30.53 12.9701C30.82 13.2601 30.82 13.7401 30.53 14.0301C30.24 14.3201 29.76 14.3201 29.47 14.0301L27.47 12.0301C27.18 11.7401 27.18 11.2601 27.47 10.9701C27.62 10.8201 27.81 10.7501 28 10.7501Z" fill="white"/>
</svg>
