<svg width="40" height="40" viewBox="0 0 40 40" fill="none" xmlns="http://www.w3.org/2000/svg">
<rect width="40" height="40" rx="8" fill="#002D62"/>
<path d="M22.5 17.25H10C9.59 17.25 9.25 16.91 9.25 16.5C9.25 16.09 9.59 15.75 10 15.75H22.5C22.91 15.75 23.25 16.09 23.25 16.5C23.25 16.91 22.91 17.25 22.5 17.25ZM16 25.25H14C13.59 25.25 13.25 24.91 13.25 24.5C13.25 24.09 13.59 23.75 14 23.75H16C16.41 23.75 16.75 24.09 16.75 24.5C16.75 24.91 16.41 25.25 16 25.25ZM22.5 25.25H18.5C18.09 25.25 17.75 24.91 17.75 24.5C17.75 24.09 18.09 23.75 18.5 23.75H22.5C22.91 23.75 23.25 24.09 23.25 24.5C23.25 24.91 22.91 25.25 22.5 25.25Z" fill="white"/>
<path d="M25.56 29.25H14.44C10.46 29.25 9.25 28.05 9.25 24.11V15.89C9.25 11.95 10.46 10.75 14.44 10.75H22.5C22.91 10.75 23.25 11.09 23.25 11.5C23.25 11.91 22.91 12.25 22.5 12.25H14.44C11.3 12.25 10.75 12.79 10.75 15.89V24.1C10.75 27.2 11.3 27.74 14.44 27.74H25.55C28.69 27.74 29.24 27.2 29.24 24.1V22.02C29.24 21.61 29.58 21.27 29.99 21.27C30.4 21.27 30.74 21.61 30.74 22.02V24.1C30.75 28.05 29.54 29.25 25.56 29.25Z" fill="white"/>
<path d="M28 18.25C27.8013 18.2492 27.611 18.1699 27.4705 18.0295C27.3301 17.889 27.2508 17.6987 27.25 17.5V11.5C27.25 11.09 27.59 10.75 28 10.75C28.41 10.75 28.75 11.09 28.75 11.5V15.69L29.47 14.97C29.76 14.68 30.24 14.68 30.53 14.97C30.82 15.26 30.82 15.74 30.53 16.03L28.53 18.03C28.3895 18.1707 28.1988 18.2498 28 18.25Z" fill="white"/>
<path d="M28 18.2499C27.81 18.2499 27.62 18.1799 27.47 18.0299L25.47 16.0299C25.18 15.7399 25.18 15.2599 25.47 14.9699C25.76 14.6799 26.24 14.6799 26.53 14.9699L28.53 16.9699C28.82 17.2599 28.82 17.7399 28.53 18.0299C28.38 18.1799 28.19 18.2499 28 18.2499Z" fill="white"/>
</svg>
