<svg width="390" height="229" viewBox="0 0 390 229" fill="none" xmlns="http://www.w3.org/2000/svg">
<path opacity="0.2" d="M457.606 19.5555C443.594 42.642 428.303 64.9554 412.194 86.6307C385.415 122.662 357.434 157.538 321.358 184.781C302.209 199.241 279.715 212.004 257.244 220.585C248.689 223.852 238.053 227.28 228.594 226.538C224.318 226.202 224.353 223.538 225.74 220.265C230.855 208.195 243.209 196.767 251.733 187.8C276.416 161.831 302.398 137.119 327.984 112.053C347.887 92.554 367.928 73.0965 385.444 51.3577C395.482 38.9 405.398 25.3012 412.103 10.6681C413.961 6.61524 415.842 1.49377 415.163 -3.14121C413.722 -12.9776 396.609 -14.0146 389.688 -13.2465C364.219 -10.4195 342.318 8.11486 322.511 22.7095C316.701 26.9906 308.882 34.8023 301.581 36.8545C297.293 38.0598 299.677 33.1259 300.212 31.5429C301.097 28.9217 308.066 13.1232 308.537 11.9453C312.867 1.11327 316.649 -10.1283 317.294 -21.8839C317.381 -23.465 318.352 -36.379 312.377 -33.2702C310.332 -32.206 308.576 -30.5956 307.027 -28.888C300.831 -22.0561 291.48 -8.06935 287.444 -0.931628C276.395 18.6074 265.162 41.5331 265.223 64.5947C265.235 69.1692 265.502 74.1908 267.974 78.0395C272.683 85.3699 284.724 82.2242 290.254 80.3713C310.966 73.4318 331.311 59.5801 347.935 45.8163C371.016 26.7058 391.395 3.71057 408.059 -21.1855C417.867 -35.8392 430.195 -55.5103 430.583 -74.0766C431.234 -105.199 382.445 -86.3284 369.549 -81.7966C334.171 -69.3636 300.482 -52.9137 266.874 -36.4188C228.001 -17.3401 189.33 2.00575 149.971 20.0832C91.8972 46.7561 32.4425 73.7813 -29.1106 91.5909C-31.5856 92.3071 -48.8589 99.386 -49.7326 92.0604" stroke="white" stroke-opacity="0.7" stroke-width="3" stroke-linecap="round"/>
</svg>
