<svg width="26" height="26" viewBox="0 0 26 26" fill="none" xmlns="http://www.w3.org/2000/svg">
<path d="M12.9175 3.95862C9.36037 3.95862 6.46951 6.76995 6.46951 10.2292V13.2496C6.46951 13.8871 6.1901 14.8591 5.85695 15.4025L4.62109 17.3987C3.85807 18.6319 4.38466 20.001 5.78173 20.4608C10.4135 21.9658 15.4107 21.9658 20.0426 20.4608C21.3429 20.0428 21.9125 18.5483 21.2032 17.3987L19.9673 15.4025C19.6449 14.8591 19.3655 13.8871 19.3655 13.2496V10.2292C19.3655 6.7804 16.4639 3.95862 12.9175 3.95862Z" stroke="#1E1E1E" stroke-width="1.612" stroke-miterlimit="10" stroke-linecap="round"/>
<path d="M14.9056 4.2619C14.5725 4.16784 14.2286 4.09468 13.8739 4.05288C12.8423 3.92747 11.8536 4.00062 10.9294 4.2619C11.241 3.48852 12.0148 2.94507 12.9175 2.94507C13.8202 2.94507 14.594 3.48852 14.9056 4.2619Z" stroke="#1E1E1E" stroke-width="1.612" stroke-miterlimit="10" stroke-linecap="round" stroke-linejoin="round"/>
<path d="M16.1415 20.8372C16.1415 22.5616 14.6907 23.9725 12.9175 23.9725C12.0363 23.9725 11.2195 23.6171 10.6392 23.0528C10.0589 22.4884 9.69351 21.6941 9.69351 20.8372" stroke="#1E1E1E" stroke-width="1.612" stroke-miterlimit="10"/>
</svg>
