<svg width="40" height="40" viewBox="0 0 40 40" fill="none" xmlns="http://www.w3.org/2000/svg">
<rect width="40" height="40" rx="10" fill="#D97706"/>
<path fill-rule="evenodd" clip-rule="evenodd" d="M17.401 11.0029C18.556 9.00293 21.444 9.00293 22.598 11.0029L29.953 23.7509C31.107 25.7509 29.663 28.2509 27.354 28.2509H12.645C10.336 28.2509 8.893 25.7509 10.047 23.7509L17.4 11.0029H17.401ZM20 16.2499C20.1989 16.2499 20.3897 16.3289 20.5303 16.4696C20.671 16.6103 20.75 16.801 20.75 16.9999V20.7499C20.75 20.9488 20.671 21.1396 20.5303 21.2803C20.3897 21.4209 20.1989 21.4999 20 21.4999C19.8011 21.4999 19.6103 21.4209 19.4697 21.2803C19.329 21.1396 19.25 20.9488 19.25 20.7499V16.9999C19.25 16.801 19.329 16.6103 19.4697 16.4696C19.6103 16.3289 19.8011 16.2499 20 16.2499ZM20 24.4999C20.1989 24.4999 20.3897 24.4209 20.5303 24.2803C20.671 24.1396 20.75 23.9488 20.75 23.7499C20.75 23.551 20.671 23.3603 20.5303 23.2196C20.3897 23.0789 20.1989 22.9999 20 22.9999C19.8011 22.9999 19.6103 23.0789 19.4697 23.2196C19.329 23.3603 19.25 23.551 19.25 23.7499C19.25 23.9488 19.329 24.1396 19.4697 24.2803C19.6103 24.4209 19.8011 24.4999 20 24.4999Z" fill="white"/>
</svg>
