<svg width="26" height="26" viewBox="0 0 26 26" fill="none" xmlns="http://www.w3.org/2000/svg">
<rect width="26" height="26" rx="13" fill="white"/>
<path d="M9.12025 8.6314C8.98524 8.84509 8.80511 9.02664 8.5925 9.16333C8.37989 9.30002 8.13995 9.38853 7.8895 9.42265C7.6045 9.46315 7.32175 9.50665 7.039 9.5539C6.24925 9.68515 5.6875 10.3804 5.6875 11.1807V17.5002C5.6875 17.9477 5.86529 18.3769 6.18176 18.6934C6.49822 19.0099 6.92745 19.1877 7.375 19.1877H18.625C19.0726 19.1877 19.5018 19.0099 19.8182 18.6934C20.1347 18.3769 20.3125 17.9477 20.3125 17.5002V11.1807C20.3125 10.3804 19.75 9.68515 18.961 9.5539C18.678 9.50676 18.3945 9.463 18.1105 9.42265C17.8602 9.38843 17.6204 9.29987 17.4079 9.16318C17.1954 9.0265 17.0154 8.845 16.8805 8.6314L16.264 7.6444C16.1255 7.41948 15.9349 7.23122 15.7083 7.09558C15.4816 6.95994 15.2257 6.8809 14.962 6.86515C13.6549 6.79495 12.3451 6.79495 11.038 6.86515C10.7743 6.8809 10.5184 6.95994 10.2917 7.09558C10.0651 7.23122 9.87446 7.41948 9.736 7.6444L9.12025 8.6314Z" stroke="#002D62" stroke-width="1.5" stroke-linecap="round" stroke-linejoin="round"/>
<path d="M16.375 13.5625C16.375 14.4576 16.0194 15.316 15.3865 15.949C14.7535 16.5819 13.8951 16.9375 13 16.9375C12.1049 16.9375 11.2465 16.5819 10.6135 15.949C9.98058 15.316 9.625 14.4576 9.625 13.5625C9.625 12.6674 9.98058 11.809 10.6135 11.176C11.2465 10.5431 12.1049 10.1875 13 10.1875C13.8951 10.1875 14.7535 10.5431 15.3865 11.176C16.0194 11.809 16.375 12.6674 16.375 13.5625ZM18.0625 11.875H18.0685V11.881H18.0625V11.875Z" stroke="#002D62" stroke-width="1.5" stroke-linecap="round" stroke-linejoin="round"/>
</svg>
