<svg width="20" height="20" viewBox="0 0 20 20" fill="none" xmlns="http://www.w3.org/2000/svg">
<path d="M20 13.4375C20 15.3359 18.9459 16.875 16.875 16.875H3.125C1.05406 16.875 0 15.3359 0 13.4375V6.5625C0 4.66406 1.05406 3.125 3.125 3.125H16.875C18.9459 3.125 20 4.66406 20 6.5625V13.4375Z" fill="#137A08"/>
<path fill-rule="evenodd" clip-rule="evenodd" d="M9.55992 9.78749C9.53773 9.47718 9.58742 9.39937 9.94273 9.19343C9.84179 9.10155 9.71992 9.0803 9.59492 9.07062C9.44523 9.05937 9.29585 9.05437 9.14773 9.0403C9.07148 9.03374 9.0571 9.00374 9.07148 8.92843C9.11148 8.72218 9.21835 8.57905 9.42835 8.51374C9.63273 8.44968 9.83242 8.3703 10.0399 8.29499C10.0328 8.27728 10.0252 8.25947 10.0171 8.24155C9.99373 8.19736 9.98087 8.14838 9.97951 8.0984C9.97816 8.04843 9.98835 7.99882 10.0093 7.95343C10.0259 7.9178 10.0443 7.88218 10.0649 7.84937C10.193 7.64468 10.3174 7.60687 10.5352 7.70937C10.604 7.74187 10.6709 7.78093 10.7305 7.82749C10.9037 7.96218 10.9193 8.15218 10.7646 8.30937C10.6999 8.37343 10.6124 8.41749 10.5346 8.4703C10.4899 8.49968 10.418 8.49155 10.4024 8.56405C10.4015 8.56968 10.3752 8.5703 10.3609 8.5728C10.3218 8.57499 10.279 8.56687 10.244 8.58062C10.0768 8.64249 9.9121 8.70937 9.74742 8.77687C9.72179 8.78624 9.6996 8.80343 9.67492 8.81687L9.67929 8.83749C9.82679 8.83749 9.97617 8.83968 10.1234 8.83655C10.4537 8.82812 10.7846 8.81749 11.1149 8.80718C11.2224 8.80468 11.2352 8.82468 11.203 8.92749C11.1955 8.94952 11.1884 8.97171 11.1818 8.99405C11.1499 9.10999 11.0712 9.16187 10.9546 9.17968C10.6009 9.2303 10.2627 9.3428 9.93054 9.47468C9.85429 9.50593 9.77554 9.54812 9.77179 9.64093C9.76898 9.73187 9.83585 9.78905 9.90898 9.82905C9.98304 9.86874 10.0618 9.89749 10.139 9.9278C10.2271 9.96093 10.243 9.98687 10.2202 10.0756C10.1702 10.2612 10.1652 10.2722 9.96585 10.2509C9.5671 10.2078 9.21929 10.0631 8.98429 9.71593C8.93679 9.6453 8.90085 9.56593 8.85367 9.48062C8.8346 9.50499 8.81585 9.52718 8.7971 9.55062C8.6471 9.75655 8.4846 9.95155 8.27773 10.1059C8.12867 10.2181 7.97085 10.3059 7.77398 10.3016C7.54179 10.2959 7.39679 10.1778 7.3521 9.9478C7.34627 9.91926 7.34033 9.89155 7.33429 9.86468C7.11742 9.94499 6.90429 10.0247 6.69148 10.1003C6.58731 10.1363 6.4821 10.1687 6.37585 10.1975C6.33867 10.2078 6.29804 10.2041 6.25898 10.2062C6.25419 10.1971 6.25013 10.1875 6.24679 10.1775C6.27617 10.1569 6.30429 10.1334 6.33523 10.1156C6.65085 9.93218 6.96335 9.74843 7.27898 9.56624C7.32804 9.5378 7.35054 9.4978 7.3671 9.4453C7.41585 9.30437 7.47023 9.16593 7.52429 9.02655C7.53429 9.0003 7.55273 8.97905 7.57773 8.93843C7.63835 9.07155 7.58054 9.19593 7.61054 9.31999C7.62898 9.3103 7.6471 9.30124 7.66085 9.28937C7.77679 9.19374 7.89429 9.10124 8.0046 9.0003C8.15835 8.85874 8.18117 8.7403 8.09867 8.54905C8.05179 8.44343 7.99929 8.34062 7.94648 8.23812C7.93618 8.21734 7.91955 8.20038 7.89898 8.18968C7.83617 8.15312 7.8171 8.10062 7.84054 8.03624C7.86783 7.96541 7.89919 7.89676 7.9346 7.8303C7.96179 7.77999 8.00898 7.7728 8.04523 7.81499C8.12606 7.9077 8.2019 8.00374 8.27273 8.10312C8.3146 8.16187 8.29148 8.20749 8.22835 8.22687C8.26023 8.35374 8.29617 8.47749 8.32148 8.6028C8.36992 8.8528 8.29304 9.06749 8.12585 9.25468C7.96992 9.42999 7.79773 9.58593 7.59429 9.70655C7.56929 9.72093 7.54929 9.76312 7.55054 9.79343C7.55117 9.86187 7.57992 9.93155 7.65117 9.94437C7.73429 9.95937 7.82554 9.96687 7.90523 9.9478C8.09585 9.90437 8.24835 9.78499 8.37429 9.6428C8.50023 9.4978 8.60617 9.33405 8.72023 9.17905C8.75429 9.13218 8.75554 9.08562 8.73867 9.02999C8.63335 8.70437 8.53242 8.37593 8.42835 8.05062C8.37804 7.89343 8.42992 7.68405 8.54929 7.5928C8.5696 7.62655 8.58929 7.6578 8.60648 7.69187C8.82085 8.13155 8.94898 8.59593 9.01242 9.0803C9.03492 9.2603 9.06898 9.43968 9.19742 9.58249C9.29367 9.6903 9.41898 9.75124 9.55992 9.78749ZM10.5409 8.15968C10.5415 8.15197 10.5417 8.14447 10.5415 8.13718C10.4509 8.09655 10.379 8.01437 10.2509 8.01437C10.2602 8.0878 10.2684 8.15187 10.2765 8.22812L10.5409 8.15968ZM13.253 13.9244C13.088 13.9244 12.9418 13.9219 12.7946 13.9259C12.4927 13.9325 12.1921 13.9469 11.8887 13.9491C10.1893 13.9619 8.48835 13.9731 6.78804 13.9794C6.4771 13.98 6.1646 13.9587 5.86179 13.8725C5.7196 13.8319 5.58648 13.7703 5.48117 13.66C5.45617 13.6337 5.43492 13.6006 5.39929 13.5544H5.53523C7.40398 13.5662 9.27273 13.5816 11.1409 13.59C11.8102 13.5941 12.4784 13.5859 13.1477 13.5816C13.1746 13.5816 13.2224 13.5728 13.2237 13.5637C13.2287 13.5297 13.2299 13.4825 13.2096 13.4612C13.1174 13.3591 13.1696 13.2756 13.2415 13.19C13.2705 13.1556 13.3012 13.1503 13.3334 13.1881C13.4215 13.2941 13.4477 13.3491 13.369 13.45C13.3468 13.4787 13.3484 13.5262 13.3365 13.5728C13.3712 13.5756 13.3918 13.5797 13.4112 13.5791C13.7299 13.5734 14.0459 13.5666 14.364 13.56C14.4244 13.56 14.4847 13.5637 14.5449 13.5712C14.6887 13.5878 14.7649 13.6578 14.7962 13.8009C14.823 13.9206 14.823 14.0416 14.7768 14.1575C14.7149 14.3144 14.5721 14.3462 14.4449 14.2347C14.4228 14.2183 14.3964 14.2087 14.369 14.2069C14.2877 14.2044 14.2062 14.2069 14.1249 14.2075C14.0646 14.2084 14.0046 14.1991 13.9605 14.2672C13.9318 14.3112 13.8793 14.2928 13.834 14.2641C13.8013 14.2421 13.764 14.2282 13.7249 14.2234C13.6596 14.2178 13.5934 14.2266 13.5284 14.2222C13.4518 14.2184 13.3899 14.2312 13.3555 14.3109C13.3362 14.3537 13.3012 14.3522 13.2665 14.3194C13.1724 14.2347 13.1646 14.1659 13.2274 14.0537C13.2459 14.0203 13.2434 13.9762 13.253 13.9244ZM14.3699 14.0962L14.389 13.8947C14.3734 13.8931 14.3605 13.8881 14.3487 13.8881C14.0424 13.8959 13.7365 13.9025 13.4296 13.9116C13.358 13.9137 13.3309 13.9634 13.3662 14.0281C13.3971 14.0831 13.434 14.1281 13.5143 14.1137C13.5859 14.1022 13.6605 14.1112 13.733 14.1044C13.7666 14.1007 13.7981 14.0862 13.8227 14.0631C13.8721 14.0162 13.9187 14.0175 13.9693 14.0553C13.9899 14.0719 14.0115 14.0934 14.0327 14.0944C14.1443 14.0994 14.2571 14.0962 14.3699 14.0962Z" fill="white"/>
<path fill-rule="evenodd" clip-rule="evenodd" d="M5.98127 8.61843C5.8969 8.64343 5.81284 8.66843 5.72877 8.69625C5.64221 8.72312 5.56159 8.70281 5.48627 8.66406C5.4619 8.65312 5.43471 8.625 5.43127 8.60281C5.40252 8.39218 5.39065 8.18437 5.54409 8.00562C5.65096 7.87968 5.75846 7.85812 5.88002 7.96968C5.97315 8.05343 6.0494 8.15531 6.14002 8.25687C6.16877 8.24031 6.21409 8.21937 6.25377 8.19093C6.26263 8.18299 6.26978 8.17332 6.27478 8.16252C6.27978 8.15172 6.28252 8.14002 6.28284 8.12812C6.26034 7.8625 6.23502 7.595 6.2094 7.32875C6.18044 7.02937 6.15086 6.72968 6.12065 6.42968C6.11893 6.40905 6.11516 6.38864 6.1094 6.36875C6.07034 6.24906 6.13815 6.09468 6.25846 6.04625C6.27346 6.03968 6.31346 6.0575 6.3219 6.07406C6.35065 6.13312 6.37034 6.19593 6.39284 6.2575C6.4345 6.37062 6.47565 6.48385 6.51627 6.59718C6.52784 6.62616 6.535 6.65671 6.53752 6.68781C6.54627 6.79625 6.50346 6.83031 6.39971 6.80218C6.42721 7.21093 6.45659 7.61875 6.4869 8.04218C6.53377 8.00406 6.56659 7.97156 6.60377 7.94593C6.62846 7.92906 6.65877 7.92125 6.68659 7.90906C6.69877 7.93968 6.71784 7.96812 6.72065 7.99843C6.72815 8.05125 6.7144 8.1075 6.73034 8.15531C6.74784 8.20531 6.7794 8.27125 6.82096 8.28718C6.86159 8.3025 6.94377 8.27875 6.97127 8.24343C7.03909 8.16 7.08752 8.06062 7.14096 7.96562C7.1544 7.94156 7.16284 7.91531 7.17346 7.89031H7.19784C7.20815 7.9425 7.21471 7.99781 7.23096 8.04843C7.25034 8.10718 7.2694 8.17125 7.30502 8.21781C7.36627 8.2975 7.45159 8.27843 7.47284 8.18375C7.48565 8.12437 7.48002 8.05875 7.47065 7.99937C7.45846 7.9325 7.48502 7.86781 7.55034 7.85562C7.56846 7.85281 7.60502 7.875 7.61034 7.8925C7.6544 8.05687 7.65096 8.22218 7.58252 8.37812C7.52752 8.50062 7.30971 8.50843 7.19815 8.39937C7.17784 8.37968 7.1594 8.35531 7.13315 8.32687C7.04815 8.41437 6.96034 8.49343 6.83159 8.50531C6.70346 8.51687 6.59971 8.48312 6.52909 8.355C6.52034 8.38187 6.51159 8.39531 6.51159 8.40906C6.5169 8.54593 6.52409 8.68218 6.52909 8.81843C6.53877 9.06343 6.52502 9.30531 6.42565 9.53562C6.34509 9.72335 6.20029 9.87624 6.01721 9.96687C5.71752 10.1194 5.40127 10.2184 5.06127 10.22C5.0019 10.22 4.94034 10.2097 4.88252 10.1978C4.65627 10.1509 4.54284 9.99593 4.4869 9.78531C4.39909 9.45625 4.41971 9.1325 4.53002 8.81156C4.5394 8.78437 4.55721 8.75906 4.57065 8.73343C4.57832 8.73612 4.5863 8.7378 4.5944 8.73843C4.5944 8.825 4.60409 8.91281 4.59346 8.99656C4.56565 9.20156 4.57409 9.39968 4.64627 9.59312C4.71221 9.7725 4.84659 9.87312 5.03752 9.88437C5.40909 9.90562 5.72659 9.76406 6.0219 9.5525C6.22627 9.40593 6.30752 9.20468 6.30752 8.9625C6.30659 8.805 6.30752 8.64687 6.30752 8.47875C6.24846 8.50406 6.18002 8.50593 6.18971 8.59C6.23971 9.05187 5.97846 9.31875 5.60815 9.51375C5.50815 9.56718 5.39784 9.61187 5.28659 9.63406C5.0019 9.69125 4.74627 9.49875 4.70252 9.21093C4.67159 9.005 4.70596 8.80437 4.75659 8.60531C4.76534 8.57343 4.79002 8.54593 4.8069 8.51531C4.81348 8.51839 4.82041 8.5207 4.82752 8.52218C4.82752 8.56218 4.83127 8.60187 4.82752 8.64093C4.81252 8.79937 4.81159 8.95656 4.87815 9.105C4.96659 9.30531 5.11002 9.36906 5.31752 9.30062C5.57534 9.21562 5.77409 9.04656 5.94127 8.84031C5.9844 8.78625 5.98752 8.70312 6.00909 8.63281C6.00127 8.6275 5.99065 8.62281 5.98127 8.61843ZM5.88752 8.36031C5.85002 8.31468 5.82909 8.27437 5.7969 8.25281C5.76096 8.22843 5.71315 8.22031 5.6719 8.20531C5.66159 8.24843 5.6394 8.29343 5.64627 8.33437C5.64909 8.35968 5.69471 8.395 5.72252 8.39718C5.77221 8.39875 5.8219 8.37656 5.88752 8.36031ZM14.8503 7.6875C14.8588 7.86531 14.8691 8.04218 14.8772 8.22031C14.8916 8.51687 14.9138 8.8125 14.9128 9.10843C14.911 9.22877 14.8814 9.34706 14.8263 9.45406C14.6916 9.71562 14.4547 9.74968 14.2013 9.59218C14.1231 9.54437 14.0635 9.465 14.0035 9.39218C13.9688 9.35218 13.9432 9.34156 13.9122 9.38375C13.8668 9.44419 13.825 9.50733 13.7872 9.57281C13.6903 9.74718 13.5985 9.92437 13.5025 10.0991C13.483 10.1361 13.4562 10.1688 13.4238 10.1953C13.395 10.2166 13.3506 10.2344 13.3175 10.23C13.151 10.2031 12.9119 9.9325 12.9144 9.76218C12.9153 9.61687 12.9341 9.47031 12.956 9.32562C12.9694 9.23156 12.9997 9.14093 13.0228 9.04843L13.0563 9.05062C13.0625 9.09625 13.075 9.14187 13.075 9.18781C13.0728 9.38718 13.0878 9.58 13.1691 9.765C13.1794 9.78625 13.1885 9.80875 13.2013 9.82843C13.2622 9.92468 13.3403 9.92812 13.405 9.83343C13.4394 9.78156 13.465 9.72375 13.4963 9.66875C13.611 9.46593 13.7216 9.25937 13.8422 9.06093C13.9197 8.93187 13.9956 8.93187 14.0975 9.04656C14.1638 9.12281 14.2225 9.20937 14.296 9.27781C14.4066 9.38031 14.5625 9.3425 14.6144 9.20093C14.6428 9.11812 14.6635 9.02656 14.66 8.93968C14.6453 8.51906 14.6231 8.09625 14.6016 7.67562C14.596 7.58375 14.5822 7.49125 14.5831 7.4C14.5858 7.31879 14.5573 7.23964 14.5035 7.17875C14.3485 6.98718 14.1994 6.79031 14.0444 6.59875C13.9653 6.5025 13.9163 6.40468 13.9344 6.27656C13.9441 6.21718 13.9328 6.15468 13.9375 6.095C13.94 6.06906 13.951 6.03093 13.9694 6.02187C13.9881 6.01343 14.0278 6.02687 14.045 6.04375C14.1659 6.15666 14.2842 6.27187 14.4 6.38937C14.45 6.43937 14.4406 6.47 14.3669 6.5175C14.4125 6.58531 14.4591 6.65218 14.5038 6.71843L14.5278 6.71406C14.5135 6.605 14.5166 6.48968 14.481 6.39031C14.425 6.2375 14.4831 6.12437 14.5669 6.01312C14.6106 5.95468 14.6453 5.99312 14.6638 6.04C14.7106 6.15968 14.7547 6.27875 14.7975 6.40062C14.8241 6.47468 14.8453 6.55156 14.8725 6.64C14.8285 6.63718 14.8053 6.63437 14.7841 6.6325C14.7835 6.63812 14.78 6.64187 14.78 6.64687C14.7897 6.80406 14.7985 6.9625 14.8097 7.11875C14.8113 7.13656 14.8128 7.15625 14.8231 7.17062C14.9306 7.32343 15.0419 7.47625 15.1644 7.62312C15.1472 7.50937 15.126 7.39406 15.1144 7.27937C15.0813 6.96906 15.0613 6.65718 15.0178 6.34875C14.9997 6.21687 15.0275 6.1125 15.1038 6.01312C15.1635 5.93593 15.2132 5.9375 15.2422 6.02937C15.3019 6.21843 15.3541 6.41125 15.4031 6.60468C15.4213 6.67468 15.3903 6.70156 15.3106 6.70468C15.3279 6.95385 15.3463 7.20208 15.3656 7.44937C15.3785 7.6075 15.3903 7.765 15.4085 7.92062C15.4144 7.96437 15.4288 8.0125 15.4535 8.05031C15.6016 8.27593 15.756 8.49875 15.9028 8.72437C15.9994 8.87312 16.0503 9.03656 16.0375 9.21593C16.036 9.24062 16.031 9.26437 16.0263 9.31312C15.8322 9.02843 15.6522 8.76562 15.4728 8.50156C15.4516 8.78375 15.521 9.06593 15.3844 9.32593C15.376 9.32593 15.366 9.32593 15.3575 9.32656C15.3525 9.28781 15.3413 9.24968 15.3431 9.20968C15.3556 8.90031 15.3319 8.59156 15.2756 8.2875C15.2713 8.26687 15.2685 8.24375 15.256 8.22812C15.1288 8.04562 14.9991 7.86531 14.87 7.68375C14.8634 7.68479 14.8566 7.68604 14.8503 7.6875Z" fill="white"/>
<path fill-rule="evenodd" clip-rule="evenodd" d="M5.22373 6.24905C5.36248 6.35499 5.42591 6.4803 5.41029 6.63342C5.38966 6.82436 5.43435 7.00342 5.48404 7.1828C5.5206 7.31217 5.59873 7.36561 5.72466 7.36936C5.8281 7.37092 5.86935 7.32967 5.84748 7.22967C5.80904 7.06186 5.76216 6.89561 5.71873 6.72936C5.71025 6.69591 5.69754 6.66367 5.68091 6.63342C5.61185 6.50749 5.64779 6.40592 5.7456 6.31311C5.78716 6.27311 5.82341 6.26811 5.8581 6.3103C5.91154 6.37499 5.96779 6.43905 6.00873 6.51186C6.06029 6.59936 6.04435 6.63749 5.95279 6.68936C5.98248 6.8178 6.02373 6.94624 6.03779 7.07749C6.05216 7.19686 6.05466 7.32436 6.03091 7.44186C5.99529 7.61374 5.75748 7.74217 5.59091 7.70217C5.4931 7.67749 5.43435 7.61217 5.39685 7.52311C5.38091 7.4853 5.3681 7.4453 5.34904 7.39342C5.32685 7.42374 5.30935 7.44186 5.2956 7.4628C5.26779 7.50342 5.25029 7.55592 5.21373 7.58592C5.11966 7.66186 5.13404 7.75686 5.14216 7.85655C5.16185 8.12905 5.18185 8.40092 5.1931 8.67342C5.19779 8.78374 5.16998 8.88967 5.07373 8.97374C5.0556 8.77999 5.0381 8.58749 5.01779 8.39405C4.99748 8.19874 4.97435 8.00311 4.95123 7.80342C4.93966 7.80092 4.92904 7.79592 4.91623 7.79499C4.70779 7.77405 4.58373 7.66717 4.52841 7.46342C4.48404 7.30061 4.4906 7.13592 4.50716 6.97217C4.51373 6.90342 4.51623 6.8353 4.52154 6.76592C4.50873 6.76405 4.4981 6.76092 4.48591 6.75936C4.45529 6.86999 4.4231 6.98061 4.39623 7.09249C4.35623 7.2503 4.32466 7.40874 4.28466 7.56561C4.27224 7.60266 4.25223 7.63672 4.22591 7.66561C4.14623 7.76842 4.04779 7.76655 3.98873 7.65186C3.93618 7.54951 3.8951 7.44167 3.86623 7.3303C3.79711 7.09233 3.79269 6.84023 3.85341 6.59999C3.86029 6.56999 3.87748 6.54124 3.88904 6.51186C3.89623 6.51249 3.90435 6.51436 3.91279 6.51436C3.91591 6.54811 3.91998 6.58374 3.92341 6.6178C3.94373 6.80936 3.95904 7.0028 3.98904 7.19467C3.99873 7.26155 4.03529 7.3278 4.0731 7.38561C4.11216 7.4478 4.16716 7.44311 4.18935 7.3753C4.22248 7.2678 4.24873 7.15749 4.26248 7.04717C4.28498 6.8428 4.33935 6.65124 4.45154 6.47842C4.48341 6.43155 4.52248 6.3853 4.56841 6.35467C4.64748 6.3028 4.72998 6.34499 4.72685 6.43811C4.72306 6.53451 4.70913 6.63025 4.68529 6.72374C4.6331 6.91905 4.6381 7.1078 4.72998 7.28967C4.77623 7.37561 4.82404 7.40624 4.92279 7.41405C4.91685 7.32999 4.9156 7.24686 4.90498 7.16467C4.87716 6.92405 4.84654 6.68217 4.81435 6.44155C4.80419 6.37294 4.78947 6.30508 4.77029 6.23842C4.75529 6.17436 4.80373 6.03655 4.86216 6.00936C4.87935 6.00092 4.9231 6.01374 4.93185 6.02967C4.99154 6.14499 5.05091 6.26186 5.09904 6.3828C5.11027 6.40991 5.1121 6.43999 5.10422 6.46826C5.09635 6.49653 5.07923 6.52134 5.0556 6.53874C5.04185 6.54874 5.03373 6.57342 5.03466 6.59217C5.05779 6.84749 5.08341 7.10374 5.10779 7.35811C5.10841 7.36311 5.11341 7.36624 5.11716 7.36999C5.22154 7.30311 5.28185 7.16436 5.25998 7.04905C5.22841 6.89217 5.19529 6.73655 5.1681 6.57842C5.14841 6.46967 5.17685 6.36717 5.22373 6.24905ZM7.98466 6.30936C7.98216 6.33499 7.98091 6.35936 7.97623 6.38311C7.94154 6.57061 7.93435 6.75967 7.97404 6.94686C7.99091 7.0253 8.0306 7.10342 8.07279 7.17374C8.09216 7.20561 8.14279 7.23811 8.17748 7.23624C8.2056 7.23467 8.2431 7.1878 8.25748 7.1528C8.33779 6.97467 8.40748 6.79061 8.49279 6.61311C8.5456 6.50249 8.61248 6.39686 8.68279 6.29686C8.70841 6.26155 8.77373 6.21499 8.80248 6.22624C8.86529 6.24842 8.89279 6.3153 8.88373 6.38905C8.87279 6.47186 8.8531 6.55467 8.84966 6.63749C8.8431 6.8078 8.83435 6.97874 8.8431 7.14874C8.85154 7.33155 8.98966 7.40874 9.1606 7.3353C9.41966 7.22467 9.48529 7.0628 9.46779 6.80217C9.45498 6.60342 9.4056 6.40467 9.36904 6.20717C9.34716 6.07842 9.42935 5.99467 9.48685 5.88342C9.58091 5.99311 9.60716 6.11124 9.6231 6.22842C9.65123 6.4228 9.66216 6.61936 9.69185 6.81436C9.7131 6.95749 9.76185 7.09405 9.8581 7.20811C9.90029 7.25842 9.94935 7.29905 10.0206 7.27592C10.094 7.25374 10.1169 7.19155 10.1231 7.12249C10.139 6.94499 10.1019 6.77311 10.0494 6.6053C10.0165 6.50042 9.98084 6.39642 9.94248 6.29342C9.92123 6.23749 9.92654 6.19405 9.96716 6.1503C9.99748 6.1178 10.0156 6.0753 10.0387 6.03749C10.0794 5.96624 10.105 5.95999 10.1678 6.00842C10.2906 6.10499 10.364 6.23374 10.404 6.38092C10.4106 6.4053 10.3947 6.43811 10.3887 6.46561C10.3619 6.4603 10.334 6.45811 10.31 6.44749C10.2862 6.4378 10.2662 6.41967 10.2306 6.39561C10.2606 6.51186 10.2878 6.60999 10.31 6.71124C10.3437 6.8728 10.3675 7.03686 10.3197 7.20061C10.3125 7.22842 10.3062 7.25655 10.2965 7.28436C10.19 7.56999 9.95966 7.62811 9.72998 7.42749C9.68091 7.38436 9.63029 7.34374 9.5881 7.30874C9.50748 7.38436 9.41498 7.4753 9.31716 7.55874C9.28154 7.59092 9.23248 7.60967 9.18591 7.62811C8.97591 7.71186 8.79029 7.62999 8.70935 7.41999C8.64248 7.25092 8.65435 7.07436 8.6656 6.89842C8.66779 6.85842 8.6656 6.81717 8.6656 6.77655L8.63935 6.76999C8.62091 6.80686 8.59935 6.84311 8.58529 6.8828C8.52623 7.03967 8.47373 7.19905 8.4131 7.35561C8.32654 7.58124 8.19435 7.59749 8.04216 7.40999C7.77716 7.07936 7.78904 6.72092 7.93373 6.34967C7.94029 6.33405 7.9531 6.31936 7.96248 6.30499C7.96946 6.30821 7.97698 6.31012 7.98466 6.31061M11.2109 6.88436C11.1962 6.73624 11.2053 6.57874 11.1578 6.44311C11.1387 6.39224 11.1302 6.33802 11.1328 6.28375C11.1354 6.22949 11.149 6.17632 11.1728 6.12749C11.1884 6.09655 11.2231 6.05592 11.2509 6.05405C11.2787 6.05217 11.3225 6.0878 11.3353 6.11749C11.4144 6.30624 11.4906 6.49467 11.5578 6.68811C11.5912 6.78592 11.56 6.81999 11.4609 6.81186C11.4687 6.9878 11.4753 7.1628 11.4875 7.33717C11.4881 7.36092 11.5093 7.38405 11.5222 7.40749C11.7484 7.79092 11.9806 8.17155 12.1987 8.55967C12.3072 8.75061 12.3912 8.95624 12.4225 9.17811C12.429 9.22249 12.4278 9.26936 12.4293 9.3153C12.4211 9.31995 12.4127 9.32423 12.404 9.32811C12.3847 9.30249 12.3609 9.27905 12.3481 9.2503C12.1403 8.75842 11.855 8.30967 11.5709 7.85842C11.5565 7.83717 11.5419 7.81717 11.514 7.77811C11.5284 7.95249 11.5419 8.10592 11.554 8.2578C11.5819 8.59436 11.6478 8.92936 11.6075 9.26811C11.5875 9.42842 11.5381 9.58436 11.4965 9.7403C11.4881 9.7778 11.4587 9.8103 11.4378 9.84405C11.4265 9.84124 11.414 9.83967 11.4037 9.83717C11.4037 9.79686 11.3959 9.75467 11.4053 9.71561C11.4831 9.41342 11.4553 9.10686 11.4203 8.80217C11.375 8.39842 11.3194 7.99624 11.2744 7.5928C11.2565 7.43655 11.2215 7.29436 11.1187 7.1678C10.9678 6.97842 10.8356 6.77717 10.69 6.58374C10.6469 6.52717 10.5859 6.48405 10.5394 6.42999C10.5125 6.40061 10.4853 6.36155 10.4806 6.3253C10.4709 6.22864 10.4677 6.13145 10.4709 6.03436C10.4709 6.00717 10.4865 5.9678 10.5062 5.95655C10.5269 5.94717 10.5697 5.95717 10.5897 5.97499C10.7438 6.11374 10.895 6.2554 11.0431 6.39999C11.0687 6.42436 11.0722 6.47217 11.0859 6.51061C11.045 6.51905 11.0053 6.52905 10.9584 6.53967C11.0347 6.65124 11.1144 6.77092 11.1965 6.8903C11.2007 6.88759 11.2055 6.8853 11.2109 6.88342M16.214 6.60311C16.23 6.79967 16.2462 7.00311 16.2634 7.2053C16.2975 7.60592 16.3337 8.00467 16.3684 8.40467C16.3966 8.68412 16.3855 8.96614 16.3353 9.24249C16.2628 9.62467 16.0981 9.9453 15.7147 10.1006C15.6025 10.1462 15.48 10.17 15.3606 10.2006C15.3278 10.2078 15.2912 10.2012 15.2562 10.2012C15.2531 10.1919 15.2484 10.184 15.2456 10.175C15.2803 10.1425 15.3119 10.1072 15.3487 10.0787C15.474 9.98249 15.604 9.89499 15.7265 9.79624C16.02 9.55686 16.1587 9.24311 16.1387 8.86999C16.1176 8.4851 16.0879 8.10073 16.0497 7.71717C16.0122 7.32655 15.9647 6.93655 15.919 6.54655C15.9072 6.44499 15.8903 6.34436 15.8753 6.24342C15.8631 6.1703 15.955 5.98467 16.0219 5.96374C16.0378 5.95936 16.0769 5.97967 16.0853 5.99874C16.1665 6.16905 16.2434 6.3403 16.3194 6.51311C16.3287 6.53967 16.3225 6.57186 16.324 6.60311H16.214Z" fill="white"/>
<path fill-rule="evenodd" clip-rule="evenodd" d="M11.5312 10.265C11.5734 10.2441 11.6137 10.2153 11.6571 10.2034C11.9481 10.1241 12.1524 9.92844 12.3496 9.71719C12.5296 9.52468 12.5796 9.29687 12.5596 9.04156C12.5362 8.72594 12.5265 8.40812 12.5002 8.0925C12.4677 7.7 12.424 7.31031 12.3824 6.91937C12.3679 6.78152 12.3496 6.64407 12.3277 6.50719C12.3223 6.4657 12.3126 6.42487 12.299 6.38531C12.2759 6.30844 12.2862 6.24219 12.3446 6.18344C12.4002 6.13187 12.4515 6.07687 12.5134 6.01312C12.5346 6.04781 12.5593 6.07344 12.5687 6.10219C12.6177 6.26687 12.6665 6.43344 12.7106 6.60031C12.734 6.68687 12.7127 6.70406 12.6102 6.68437C12.6102 6.76906 12.6043 6.85218 12.6109 6.93406C12.6577 7.60531 12.7606 8.27312 12.7524 8.94875C12.749 9.20125 12.7459 9.45437 12.6296 9.68656C12.5246 9.89562 12.3665 10.0644 12.1793 10.2044C12.1289 10.2413 12.0706 10.2661 12.009 10.2769C11.8821 10.2966 11.754 10.3041 11.6262 10.3131C11.5968 10.3147 11.5665 10.3012 11.5368 10.2956C11.5354 10.2853 11.5336 10.2751 11.5312 10.265ZM13.1968 6.75031C13.2115 6.9075 13.2224 7.05062 13.2393 7.19469C13.2831 7.5851 13.3287 7.9751 13.3762 8.36469C13.399 8.55375 13.4331 8.7425 13.4593 8.93156C13.4918 9.17156 13.4431 9.39625 13.3318 9.60719C13.3121 9.64469 13.2752 9.67187 13.2462 9.70344C13.2371 9.70187 13.2284 9.69875 13.2199 9.6975C13.2121 9.66375 13.1943 9.62781 13.2015 9.59937C13.269 9.32156 13.224 9.04687 13.1871 8.77125C13.1343 8.39312 13.0909 8.01281 13.0374 7.635C12.9812 7.24343 12.9243 6.85187 12.859 6.46187C12.8312 6.29187 12.8609 6.14625 12.9671 6.01281C13.0262 5.93875 13.0768 5.94281 13.1131 6.02812C13.1481 6.11094 13.1702 6.19562 13.2046 6.27843C13.2524 6.395 13.309 6.50687 13.3565 6.62344C13.3743 6.66656 13.3759 6.71594 13.3843 6.76094C13.3399 6.76312 13.2946 6.76593 13.2496 6.76593C13.2371 6.76562 13.2256 6.75937 13.1968 6.75031ZM6.74461 7.13656C6.77774 7.10875 6.81211 7.07812 6.84618 7.05062C6.9918 6.93125 7.13961 6.81437 7.28305 6.69125C7.33868 6.6425 7.38149 6.57812 7.43055 6.52344C7.31336 6.34875 7.32524 6.16187 7.4568 6.04968C7.51336 6.00156 7.57586 5.97437 7.65149 6.00875C7.72368 6.04406 7.74461 6.10812 7.73649 6.18031C7.72961 6.24719 7.70868 6.31344 7.6968 6.37812C7.68836 6.425 7.69086 6.47406 7.67836 6.51906C7.66642 6.54996 7.64761 6.57774 7.62336 6.60031C7.59524 6.62812 7.55243 6.64437 7.52868 6.67437C7.34618 6.90594 7.10461 7.05156 6.83305 7.15406C6.81086 7.16219 6.78461 7.16125 6.75961 7.16437C6.75503 7.15541 6.75003 7.14614 6.74461 7.13656ZM7.5743 6.20219C7.56086 6.2 7.54743 6.19562 7.53461 6.19375C7.52618 6.2375 7.51618 6.28187 7.50836 6.32531L7.54086 6.33125C7.55305 6.2875 7.56243 6.24531 7.5743 6.20219ZM4.11836 9.05437C4.14555 9.165 4.14493 9.25781 4.1218 9.3575C4.09399 9.47937 4.08118 9.60437 4.0643 9.72781C4.0618 9.74719 4.0643 9.77156 4.07461 9.78812C4.09524 9.82156 4.11618 9.86531 4.14711 9.87875C4.16555 9.88625 4.2068 9.8425 4.23368 9.81937C4.24961 9.80531 4.25743 9.77969 4.27524 9.77219C4.2893 9.76687 4.32274 9.77344 4.32711 9.785C4.3693 9.8775 4.29118 10.0766 4.19774 10.1209C4.09805 10.1684 3.99118 10.1275 3.96711 10.0091C3.94149 9.89031 3.92274 9.76062 3.94149 9.64281C3.97149 9.45875 4.03336 9.28 4.08336 9.09875C4.08743 9.08531 4.1018 9.07562 4.11836 9.05437ZM13.9802 7.755L13.779 7.40125C13.6665 7.45687 13.6402 7.44125 13.6459 7.3275C13.6477 7.29875 13.6381 7.26781 13.6449 7.24187C13.6537 7.21281 13.6706 7.17312 13.694 7.16375C13.7165 7.15656 13.7637 7.17562 13.7781 7.19687C13.8231 7.26687 13.8577 7.34312 13.8965 7.4175C13.9127 7.44844 13.9277 7.4825 13.9596 7.51218C13.9596 7.45468 13.9587 7.39937 13.9596 7.34156C13.9618 7.27 13.9546 7.19437 13.9737 7.12656C13.9865 7.08219 14.0349 7.04469 14.0731 7.01312C14.0856 7.00187 14.1318 7.0075 14.1396 7.01968C14.1687 7.06312 14.1952 7.11062 14.2068 7.16C14.2171 7.20062 14.1959 7.23719 14.1446 7.21031C14.0702 7.17281 14.0462 7.21187 14.044 7.27375C14.0393 7.39 14.0415 7.50437 14.0368 7.62C14.0362 7.66219 14.0218 7.70469 14.0131 7.74875C14.0018 7.75146 13.9909 7.75354 13.9802 7.755ZM3.91711 8.61656C4.02774 8.44 4.17493 8.30406 4.3518 8.20219C4.46399 8.1375 4.58586 8.08906 4.7068 8.0375C4.74243 8.02156 4.79118 7.98656 4.81524 8.05719C4.83993 8.12781 4.81899 8.18062 4.7568 8.20562C4.67899 8.23593 4.59586 8.25562 4.52211 8.29375C4.33399 8.38969 4.14993 8.49281 3.96368 8.59375C3.94847 8.60208 3.93295 8.60969 3.91711 8.61656ZM11.1912 9.93344C11.0624 10.0441 10.9437 10.1716 10.7599 10.1953C10.6399 10.2116 10.5768 10.1366 10.604 10.0181C10.6137 9.97656 10.6218 9.93437 10.6334 9.88344C10.5727 9.89281 10.5259 9.90125 10.4737 9.91062C10.4999 9.84562 10.6821 9.71969 10.7381 9.72812C10.7565 9.73062 10.7809 9.76969 10.7799 9.78937C10.7784 9.83625 10.7581 9.88187 10.7531 9.92812C10.749 9.96219 10.7571 9.99719 10.7587 10.0319C10.7937 10.0291 10.8327 10.0319 10.864 10.0212C10.9346 9.995 11.0021 9.95875 11.0724 9.93031C11.1056 9.91656 11.1431 9.91062 11.1781 9.90094C11.1815 9.91187 11.1874 9.92344 11.1912 9.93344ZM14.6906 9.75312C14.7174 9.75625 14.7446 9.75375 14.7687 9.76219C14.8156 9.775 14.8384 9.80718 14.8177 9.85719C14.809 9.87906 14.7971 9.89969 14.7856 9.91969C14.7593 9.97156 14.7484 10.0106 14.8312 10.0084C14.8499 10.0084 14.8831 10.0234 14.8852 10.0378C14.8902 10.0591 14.884 10.0944 14.8668 10.1078C14.784 10.1741 14.6915 10.2234 14.5821 10.22C14.5599 10.2194 14.5249 10.2016 14.5218 10.1844C14.5152 10.1619 14.5259 10.1275 14.5412 10.1078C14.5674 10.0759 14.6056 10.0522 14.6334 10.0222C14.6643 9.98906 14.6684 9.95062 14.6268 9.92187C14.5852 9.89312 14.5252 9.86781 14.5615 9.80969C14.5837 9.775 14.6396 9.76062 14.6812 9.73656C14.6837 9.74187 14.6881 9.74718 14.6906 9.75312ZM9.52555 8.0925C9.5343 8.08281 9.53055 8.08594 9.52711 8.09C9.50274 8.13531 9.47711 8.20125 9.41805 8.17969C9.39309 8.16803 9.37072 8.15148 9.35225 8.13103C9.33379 8.11058 9.31961 8.08664 9.31055 8.06062C9.29086 7.98875 9.29868 7.90844 9.29524 7.83219L9.32243 7.82781C9.35368 7.89937 9.38555 7.97218 9.41555 8.04406L9.44899 8.04125C9.46743 7.965 9.48461 7.8875 9.50305 7.81125L9.5243 7.80906C9.56264 7.87469 9.60086 7.94146 9.63899 8.00937C9.65024 8.00875 9.6593 8.00625 9.6693 8.00562L9.70586 7.72469C9.77055 7.80656 9.78118 7.88125 9.78211 7.96031C9.78211 8.02469 9.76618 8.09062 9.70149 8.10906C9.65555 8.1225 9.59805 8.10031 9.52555 8.0925ZM13.7199 8.41125C13.7393 8.37937 13.7521 8.33969 13.7796 8.31469C13.8624 8.24281 13.9512 8.17719 14.0359 8.10812C14.129 8.03062 14.2187 7.95125 14.3134 7.87469C14.3312 7.86031 14.3637 7.84281 14.379 7.84969C14.3974 7.85812 14.4068 7.89187 14.4115 7.91469C14.424 7.98062 14.4049 8.03062 14.3446 8.0675C14.1668 8.17812 13.9918 8.29344 13.8143 8.40469C13.7931 8.4175 13.7693 8.42469 13.7446 8.435C13.7368 8.42664 13.7286 8.41871 13.7199 8.41125ZM15.6749 7.01562C15.6671 6.96 15.6662 6.90344 15.6512 6.84906C15.6177 6.72187 15.5865 6.59156 15.5352 6.47125C15.5046 6.39562 15.5031 6.3375 15.5487 6.27531C15.5921 6.21656 15.624 6.21437 15.6493 6.27968C15.6906 6.38718 15.7324 6.49593 15.7465 6.6075C15.7618 6.7175 15.7434 6.83031 15.7362 6.94156C15.7346 6.96781 15.7149 6.99219 15.7043 7.01719C15.6945 7.0162 15.6847 7.01568 15.6749 7.01562ZM11.9062 6.70687C11.9062 6.655 11.8993 6.61625 11.9081 6.58125C11.9412 6.44593 11.8952 6.34031 11.8015 6.24781C11.7296 6.17562 11.7274 6.09625 11.8027 6.03093C11.8212 6.01562 11.8712 6.01094 11.8884 6.025C12.0431 6.1475 12.0756 6.53625 11.9484 6.68687C11.9437 6.6925 11.9356 6.69312 11.9062 6.70687ZM7.5993 7.25937C7.6243 7.38062 7.49993 7.54187 7.36368 7.54937C7.28399 7.55344 7.20493 7.47375 7.2043 7.3775C7.20118 7.22375 7.28868 7.11281 7.39493 7.01531C7.40086 7.00968 7.4143 7.01312 7.44524 7.00969C7.41586 7.07 7.39024 7.11718 7.37149 7.16406C7.35211 7.20968 7.33149 7.25625 7.32586 7.30406C7.3218 7.33125 7.3393 7.38031 7.35993 7.38906C7.3868 7.4 7.43211 7.39218 7.4593 7.37562C7.50743 7.34656 7.54743 7.30437 7.5993 7.25937Z" fill="white"/>
<path fill-rule="evenodd" clip-rule="evenodd" d="M12.085 7.08312C12.11 7.01781 12.1368 6.9525 12.1647 6.88312C12.2181 6.94719 12.2281 7.125 12.1862 7.17781C12.1528 7.21969 12.1087 7.22375 12.0672 7.19125C12.0203 7.15437 11.9837 7.15375 11.9353 7.19187C11.8778 7.23875 11.8381 7.22687 11.8197 7.15719C11.8047 7.10094 11.8068 7.04187 11.8022 6.98531C11.8115 6.98187 11.8222 6.97937 11.8309 6.97656C11.855 7.01625 11.8778 7.05625 11.9106 7.1125C11.9378 7.0425 11.9565 6.98937 11.9847 6.91594C12.014 6.98562 12.0359 7.03219 12.0568 7.08094C12.0658 7.08135 12.0752 7.08208 12.085 7.08312ZM7.06309 9.27719C7.0759 9.16719 7.08778 9.06937 7.0984 8.97156C6.95309 8.95187 6.92059 8.90375 6.97247 8.79781C6.98747 8.76781 7.02965 8.72312 7.05278 8.72781C7.0959 8.735 7.15122 8.76187 7.17122 8.79875C7.23403 8.91156 7.18747 9.16375 7.09809 9.25875C7.09403 9.26437 7.08434 9.26594 7.06309 9.27719ZM5.36872 5.95625C5.37778 6.01562 5.37934 6.05562 5.39122 6.09219C5.39903 6.11937 5.42122 6.14156 5.43559 6.16687C5.45903 6.15187 5.48778 6.14156 5.50403 6.12219C5.52872 6.08656 5.54528 6.04594 5.58278 6.00687C5.58684 6.03906 5.58684 6.07219 5.59715 6.1C5.60997 6.12937 5.63434 6.15344 5.65278 6.17969C5.6709 6.15719 5.69122 6.13687 5.70778 6.11281C5.71715 6.09937 5.72122 6.08281 5.73059 6.06437C5.7809 6.13219 5.77559 6.21531 5.71997 6.26312C5.65059 6.32219 5.60747 6.26687 5.56559 6.22125C5.4509 6.29437 5.40528 6.29719 5.35059 6.23531C5.28747 6.16187 5.28653 6.05562 5.36872 5.95625ZM14.3109 8.83125C14.3065 8.79156 14.2981 8.76781 14.3025 8.74781C14.3384 8.62812 14.2903 8.54625 14.1956 8.47875C14.1265 8.43062 14.1265 8.37219 14.1968 8.32375C14.219 8.30875 14.2653 8.30312 14.2875 8.31594C14.4303 8.39875 14.4709 8.66781 14.3634 8.79031C14.3543 8.80125 14.3409 8.80906 14.3109 8.83125ZM9.14684 6.73C9.14684 6.69469 9.14528 6.65969 9.14684 6.62469C9.15653 6.46969 9.12715 6.325 9.03934 6.19281C9.02434 6.17125 9.01153 6.13312 9.02028 6.11281C9.03602 6.08172 9.0621 6.05708 9.09403 6.04312C9.1084 6.03875 9.14809 6.07375 9.15934 6.09781C9.22715 6.24187 9.24059 6.39469 9.22278 6.54969C9.21622 6.6125 9.19778 6.67375 9.18434 6.73594C9.17184 6.73469 9.15903 6.73156 9.14684 6.73ZM4.24997 6.45062C4.25653 6.31844 4.32465 6.21 4.27215 6.09187C4.25247 6.09969 4.24122 6.10719 4.2284 6.11062C4.19872 6.115 4.16715 6.1175 4.13684 6.12062C4.14372 6.08844 4.1409 6.04812 4.15997 6.025C4.19872 5.97906 4.23934 5.91281 4.31372 5.94312C4.38122 5.97156 4.38434 6.04187 4.37997 6.10594C4.37372 6.22719 4.32465 6.33094 4.24997 6.45062Z" fill="white"/>
</svg>
