<svg width="111" height="299" viewBox="0 0 111 299" fill="none" xmlns="http://www.w3.org/2000/svg">
<g opacity="0.75">
<path d="M80.1143 239.707L78.6355 238.576C98.311 212.742 108.714 181.881 108.714 149.314C108.714 98.8645 83.3326 52.4506 40.8156 25.1555L41.8246 23.5897C84.8809 51.2154 110.576 98.2208 110.576 149.314C110.576 182.281 100.033 213.542 80.1143 239.707Z" fill="white" fill-opacity="0.09"/>
<path d="M-38.7031 298.594C-121.023 298.594 -188 231.617 -188 149.297C-188 66.9765 -121.023 0 -38.7031 0V1.86141C-119.997 1.86141 -186.121 68.0029 -186.121 149.279C-186.121 230.573 -119.98 296.697 -38.7031 296.697C-14.1393 296.697 10.181 290.539 31.6135 278.883L32.5008 280.519C10.7899 292.366 -13.8435 298.594 -38.7031 298.594Z" fill="white" fill-opacity="0.09"/>
<path d="M-38.7027 284.189C-53.4897 284.189 -68.0158 281.806 -81.8982 277.126L-80.6979 273.595C-67.1982 278.153 -53.0722 280.467 -38.6853 280.467C28.8653 280.467 84.9691 229.86 91.7711 162.744L95.4939 163.127C88.4657 232.122 30.779 284.189 -38.7027 284.189Z" fill="white" fill-opacity="0.09"/>
<path d="M90.7624 128.351C85.874 97.9249 70.252 70.0384 46.7493 49.841C23.003 29.4175 -7.35387 18.1794 -38.7024 18.1794C-64.0143 18.1794 -88.5782 25.3989 -109.75 39.0726C-134.418 55.0078 -153.241 79.0149 -162.757 106.675L-166.288 105.458C-156.512 77.0144 -137.149 52.3287 -111.785 35.9412C-90.0047 21.8848 -64.745 14.4565 -38.7198 14.4565C-6.46666 14.4565 24.7426 26.0252 49.1673 47.0227C73.3311 67.7942 89.4055 96.481 94.4331 127.777L90.7624 128.351Z" fill="white" fill-opacity="0.09"/>
<path d="M27.0911 221.144L24.5686 218.395C43.8961 200.686 54.9777 175.513 54.9777 149.314C54.9777 130.874 49.6196 113.025 39.4948 97.6984L42.6088 95.6456C53.1511 111.581 58.718 130.143 58.718 149.331C58.7006 176.557 47.1841 202.739 27.0911 221.144Z" fill="white" fill-opacity="0.09"/>
<path d="M-38.7034 229.982C-51.8203 229.982 -64.8503 226.763 -76.3668 220.674L-75.497 219.022C-64.2415 224.971 -51.5246 228.12 -38.7208 228.12C-3.35368 228.12 27.8904 204.339 37.2672 170.277L39.059 170.781C29.4909 205.644 -2.50124 229.982 -38.7034 229.982Z" fill="white" fill-opacity="0.09"/>
<path d="M19.5754 75.9529C2.85736 62.6446 -17.3052 55.6164 -38.7029 55.6164C-57.4737 55.6164 -75.5835 61.1485 -91.0838 71.6212L-93.1714 68.5246C-77.0622 57.6344 -58.2218 51.8935 -38.7029 51.8935C-16.4354 51.8935 4.52742 59.2001 21.9065 73.0477L19.5754 75.9529Z" fill="white" fill-opacity="0.09"/>
<path d="M-95.7453 206.375C-110.985 191.135 -119.387 170.868 -119.387 149.314C-119.387 104.831 -83.2024 68.6291 -38.7021 68.6291C5.78074 68.6291 41.9829 104.831 41.9829 149.314H40.1214C40.1214 105.858 4.77171 70.5079 -38.6848 70.5079C-82.1412 70.5079 -117.491 105.858 -117.491 149.314C-117.491 170.364 -109.297 190.161 -94.3884 205.052L-95.7453 206.375Z" fill="white" fill-opacity="0.09"/>
<path d="M-38.7031 199.486C-66.381 199.486 -88.8921 176.975 -88.8921 149.297C-88.8921 121.619 -66.381 99.1083 -38.7031 99.1083V102.849C-64.3108 102.849 -85.1519 123.69 -85.1519 149.297C-85.1519 174.905 -64.3108 195.746 -38.7031 195.746C-13.0955 195.746 7.7455 174.905 7.7455 149.297H11.4858C11.4684 176.975 -11.0427 199.486 -38.7031 199.486Z" fill="white" fill-opacity="0.09"/>
</g>
</svg>
