<svg width="119" height="299" viewBox="0 0 119 299" fill="none" xmlns="http://www.w3.org/2000/svg">
<g opacity="0.75">
<path d="M149.297 298.594C66.9766 298.594 0 231.617 0 149.297C0 66.9765 66.9766 0 149.297 0V1.86141C68.003 1.86141 1.87883 68.0029 1.87883 149.279C1.87883 230.573 68.0204 296.697 149.297 296.697C173.861 296.697 198.181 290.539 219.614 278.883L220.501 280.519C198.79 292.366 174.156 298.594 149.297 298.594Z" fill="white" fill-opacity="0.09"/>
<path d="M149.297 284.189C134.51 284.189 119.984 281.806 106.102 277.126L107.302 273.595C120.802 278.153 134.928 280.467 149.315 280.467C216.865 280.467 272.969 229.86 279.771 162.744L283.494 163.127C276.466 232.122 218.779 284.189 149.297 284.189Z" fill="white" fill-opacity="0.09"/>
<path d="M78.6508 264.218C38.43 239.445 14.4229 196.476 14.4229 149.296H18.1631C18.1631 195.171 41.5092 236.94 80.6165 261.034L78.6508 264.218Z" fill="white" fill-opacity="0.09"/>
<path d="M278.762 128.351C273.874 97.9249 258.252 70.0383 234.749 49.841C211.003 29.4175 180.646 18.1793 149.298 18.1793C123.986 18.1793 99.4218 25.3989 78.2503 39.0726C53.582 55.0078 34.759 79.0149 25.2431 106.675L21.7116 105.458C31.4885 77.0143 50.8508 52.3287 76.2149 35.9412C97.9953 21.8848 123.255 14.4565 149.28 14.4565C181.533 14.4565 212.743 26.0251 237.167 47.0227C261.331 67.7941 277.406 96.481 282.433 127.777L278.762 128.351Z" fill="white" fill-opacity="0.09"/>
<path d="M149.298 246.717C95.5773 246.717 51.8773 203.017 51.8773 149.297C51.8773 127.551 58.8881 106.989 72.1268 89.8356L75.0842 92.1146C62.35 108.624 55.6175 128.386 55.6175 149.297C55.6175 200.947 97.6475 242.977 149.298 242.977C158.466 242.977 167.529 241.655 176.21 239.045L177.289 242.629C168.243 245.36 158.814 246.717 149.298 246.717Z" fill="white" fill-opacity="0.09"/>
<path d="M149.297 229.982C136.18 229.982 123.15 226.763 111.633 220.674L112.503 219.022C123.759 224.971 136.475 228.12 149.279 228.12C184.646 228.12 215.89 204.339 225.267 170.277L227.059 170.781C217.491 205.644 185.499 229.982 149.297 229.982Z" fill="white" fill-opacity="0.09"/>
<path d="M207.575 75.9529C190.857 62.6446 170.695 55.6164 149.297 55.6164C130.526 55.6164 112.417 61.1485 96.9162 71.6212L94.8286 68.5246C110.938 57.6344 129.778 51.8936 149.297 51.8936C171.565 51.8936 192.527 59.2001 209.907 73.0477L207.575 75.9529Z" fill="white" fill-opacity="0.09"/>
<path d="M92.2547 206.375C77.0154 191.135 68.6129 170.868 68.6129 149.314C68.6129 104.831 104.798 68.629 149.298 68.629C193.781 68.629 229.983 104.831 229.983 149.314H228.121C228.121 105.858 192.772 70.5078 149.315 70.5078C105.859 70.5078 70.5091 105.858 70.5091 149.314C70.5091 170.364 78.7028 190.161 93.6116 205.052L92.2547 206.375Z" fill="white" fill-opacity="0.09"/>
<path d="M149.297 199.486C121.619 199.486 99.1079 176.975 99.1079 149.297C99.1079 121.619 121.619 99.1083 149.297 99.1083V102.849C123.689 102.849 102.848 123.69 102.848 149.297C102.848 174.905 123.689 195.746 149.297 195.746C174.905 195.746 195.746 174.905 195.746 149.297H199.486C199.468 176.975 176.957 199.486 149.297 199.486Z" fill="white" fill-opacity="0.09"/>
</g>
</svg>
