<svg width="25" height="24" viewBox="0 0 25 24" fill="none" xmlns="http://www.w3.org/2000/svg">
<path d="M7.327 6.17502C7.14699 6.45993 6.90682 6.702 6.62334 6.88426C6.33985 7.06651 6.01993 7.18452 5.686 7.23002C5.306 7.28402 4.929 7.34202 4.552 7.40502C3.499 7.58002 2.75 8.50702 2.75 9.57402V18C2.75 18.5968 2.98705 19.1691 3.40901 19.591C3.83097 20.013 4.40326 20.25 5 20.25H20C20.5967 20.25 21.169 20.013 21.591 19.591C22.0129 19.1691 22.25 18.5968 22.25 18V9.57402C22.25 8.50702 21.5 7.58002 20.448 7.40502C20.0707 7.34216 19.6927 7.28382 19.314 7.23002C18.9802 7.18438 18.6605 7.0663 18.3772 6.88406C18.0939 6.70181 17.8539 6.45981 17.674 6.17502L16.852 4.85902C16.6674 4.55912 16.4132 4.30812 16.111 4.12726C15.8089 3.9464 15.4675 3.84101 15.116 3.82002C13.3733 3.72642 11.6267 3.72642 9.884 3.82002C9.53245 3.84101 9.19114 3.9464 8.88896 4.12726C8.58678 4.30812 8.33262 4.55912 8.148 4.85902L7.327 6.17502Z" stroke="url(#paint0_linear_30_3370)" stroke-width="1.5" stroke-linecap="round" stroke-linejoin="round"/>
<path d="M17 12.75C17 13.9435 16.5259 15.0881 15.682 15.932C14.8381 16.7759 13.6935 17.25 12.5 17.25C11.3065 17.25 10.1619 16.7759 9.31802 15.932C8.47411 15.0881 8 13.9435 8 12.75C8 11.5565 8.47411 10.4119 9.31802 9.56802C10.1619 8.72411 11.3065 8.25 12.5 8.25C13.6935 8.25 14.8381 8.72411 15.682 9.56802C16.5259 10.4119 17 11.5565 17 12.75ZM19.25 10.5H19.258V10.508H19.25V10.5Z" stroke="url(#paint1_linear_30_3370)" stroke-width="1.5" stroke-linecap="round" stroke-linejoin="round"/>
<defs>
<linearGradient id="paint0_linear_30_3370" x1="2.75" y1="4.48726" x2="18.206" y2="22.1047" gradientUnits="userSpaceOnUse">
<stop stop-color="#19CBCB"/>
<stop offset="1" stop-color="#048EC3"/>
</linearGradient>
<linearGradient id="paint1_linear_30_3370" x1="8" y1="8.65223" x2="16.3551" y2="18.7325" gradientUnits="userSpaceOnUse">
<stop stop-color="#19CBCB"/>
<stop offset="1" stop-color="#048EC3"/>
</linearGradient>
</defs>
</svg>
