<svg width="20" height="20" viewBox="0 0 20 20" fill="none" xmlns="http://www.w3.org/2000/svg">
<path d="M19.6917 3.88888C19.3067 3.22722 18.5983 2.77777 17.7778 2.77777H10V3.88888H19.6917ZM0 13.8889H20V15H0V13.8889ZM10 9.44444H20V10.5555H10V9.44444ZM10 7.22222H20V8.33333H10V7.22222ZM0 11.6667H20V12.7778H0V11.6667ZM2.22222 17.2222H17.7778C18.5983 17.2222 19.3067 16.7728 19.6917 16.1111H0.308333C0.693333 16.7728 1.40167 17.2222 2.22222 17.2222ZM10 4.99999H20V6.1111H10V4.99999Z" fill="#B22334"/>
<path d="M0.0377778 15.3772C0.047037 15.4291 0.057963 15.4804 0.0705556 15.5311C0.0853704 15.5867 0.102407 15.6415 0.121667 15.6956C0.171111 15.8394 0.231111 15.9783 0.306667 16.1083L0.308333 16.1111H19.6917L19.6928 16.1089C19.7681 15.9783 19.8299 15.8403 19.8772 15.6972C19.9133 15.5928 19.9415 15.4858 19.9617 15.3772C19.9844 15.255 20 15.1294 20 15H0C0 15.1294 0.0155556 15.2544 0.0377778 15.3772ZM0 12.7778H20V13.8889H0V12.7778ZM0 10.5556V11.6667H20V10.5556H10H0ZM10 8.33333H20V9.44444H10V8.33333ZM10 6.11111H20V7.22222H10V6.11111ZM0.0711111 4.46889C0.085 4.41222 0.104444 4.35833 0.122222 4.30389C0.103053 4.3582 0.0860033 4.41324 0.0711111 4.46889ZM10 5H20C20 4.87055 19.9844 4.745 19.9617 4.62222C19.9422 4.51339 19.9138 4.40635 19.8767 4.30222C19.8292 4.1585 19.7672 4.02 19.6917 3.88889H10V5Z" fill="#EEEEEE"/>
<path d="M10 2.77777H2.22222C1.63285 2.77777 1.06762 3.0119 0.650874 3.42864C0.234126 3.84539 0 4.41062 0 4.99999L0 10.5555H10V2.77777Z" fill="#3C3B6E"/>
<path d="M1.11169 4.29222L1.45503 4.54166L1.32392 4.94444L1.66669 4.69555L2.01003 4.94444L1.87892 4.54166L2.22225 4.29222H1.79781L1.66669 3.88889L1.53614 4.29222H1.11169ZM2.22281 5.40333L2.56614 5.65277L2.43503 6.05555L2.77781 5.80666L3.12114 6.05555L2.99003 5.65277L3.33336 5.40333H2.90892L2.77781 5L2.64725 5.40333H2.22281ZM4.44503 5.40333L4.78836 5.65277L4.65725 6.05555L5.00003 5.80666L5.34336 6.05555L5.21225 5.65277L5.55558 5.40333H5.13114L5.00003 5L4.86947 5.40333H4.44503ZM6.66725 5.40333L7.01058 5.65277L6.87947 6.05555L7.22225 5.80666L7.56558 6.05555L7.43447 5.65277L7.77781 5.40333H7.35336L7.22225 5L7.09169 5.40333H6.66725ZM2.22281 7.62555L2.56614 7.875L2.43503 8.27777L2.77781 8.02889L3.12114 8.27777L2.99003 7.875L3.33336 7.62555H2.90892L2.77781 7.22222L2.64725 7.62555H2.22281ZM4.44503 7.62555L4.78836 7.875L4.65725 8.27777L5.00003 8.02889L5.34336 8.27777L5.21225 7.875L5.55558 7.62555H5.13114L5.00003 7.22222L4.86947 7.62555H4.44503ZM6.66725 7.62555L7.01058 7.875L6.87947 8.27777L7.22225 8.02889L7.56558 8.27777L7.43447 7.875L7.77781 7.62555H7.35336L7.22225 7.22222L7.09169 7.62555H6.66725ZM3.33392 4.29222L3.67725 4.54166L3.54614 4.94444L3.88892 4.69555L4.23225 4.94444L4.10114 4.54166L4.44447 4.29222H4.02003L3.88892 3.88889L3.75836 4.29222H3.33392ZM5.55614 4.29222L5.89947 4.54166L5.76836 4.94444L6.11114 4.69555L6.45447 4.94444L6.32336 4.54166L6.6667 4.29222H6.24225L6.11114 3.88889L5.98058 4.29222H5.55614ZM7.77836 4.29222L8.12169 4.54166L7.99058 4.94444L8.33336 4.69555L8.67669 4.94444L8.54558 4.54166L8.88892 4.29222H8.46447L8.33336 3.88889L8.20281 4.29222H7.77836ZM1.11169 6.51444L1.45503 6.76389L1.32392 7.16666L1.66669 6.91777L2.01003 7.16666L1.87892 6.76389L2.22225 6.51444H1.79781L1.66669 6.11111L1.53614 6.51444H1.11169ZM3.54614 7.16666L3.88892 6.91777L4.23225 7.16666L4.10114 6.76389L4.44447 6.51444H4.02003L3.88892 6.11111L3.75836 6.51444H3.33392L3.67725 6.76389L3.54614 7.16666ZM5.55614 6.51444L5.89947 6.76389L5.76836 7.16666L6.11114 6.91777L6.45447 7.16666L6.32336 6.76389L6.6667 6.51444H6.24225L6.11114 6.11111L5.98058 6.51444H5.55614ZM7.77836 6.51444L8.12169 6.76389L7.99058 7.16666L8.33336 6.91777L8.67669 7.16666L8.54558 6.76389L8.88892 6.51444H8.46447L8.33336 6.11111L8.20281 6.51444H7.77836ZM1.11169 8.73666L1.45503 8.98611L1.32392 9.38889L1.66669 9.14L2.01003 9.38889L1.87892 8.98611L2.22225 8.73666H1.79781L1.66669 8.33333L1.53614 8.73666H1.11169ZM3.54614 9.38889L3.88892 9.14L4.23225 9.38889L4.10114 8.98611L4.44447 8.73666H4.02003L3.88892 8.33333L3.75836 8.73666H3.33392L3.67725 8.98611L3.54614 9.38889ZM5.55614 8.73666L5.89947 8.98611L5.76836 9.38889L6.11114 9.14L6.45447 9.38889L6.32336 8.98611L6.6667 8.73666H6.24225L6.11114 8.33333L5.98058 8.73666H5.55614ZM7.77836 8.73666L8.12169 8.98611L7.99058 9.38889L8.33336 9.14L8.67669 9.38889L8.54558 8.98611L8.88892 8.73666H8.46447L8.33336 8.33333L8.20281 8.73666H7.77836Z" fill="white"/>
</svg>
