<svg width="60" height="60" viewBox="0 0 60 60" fill="none" xmlns="http://www.w3.org/2000/svg">
<rect x="60" width="60" height="60" rx="15" transform="rotate(90 60 0)" fill="url(#paint0_linear_15_425)"/>
<path fill-rule="evenodd" clip-rule="evenodd" d="M20.8716 18.4362C21.4031 13.8654 25.2881 10.3125 30 10.3125C34.7119 10.3125 38.5969 13.8661 39.1284 18.4375C41.1098 18.5764 43.0878 18.7595 45.0609 18.9868C46.3365 19.1388 47.5119 19.7533 48.3646 20.7141C49.2173 21.6748 49.688 22.9149 49.6875 24.1994C49.6875 29.2289 49.6875 38.5076 49.6809 43.5345C49.6809 46.1877 47.7056 48.4236 45.0675 48.7425L45.0609 48.7432C35.0597 49.9054 25.0256 49.9054 14.9456 48.7445L14.9391 48.7438C13.664 48.5908 12.4892 47.9759 11.6367 47.0154C10.7842 46.0549 10.3131 44.8155 10.3125 43.5312C10.3125 38.5017 10.3125 29.2237 10.3191 24.1968C10.3187 22.9148 10.7878 21.6771 11.6378 20.7174C12.4878 19.7577 13.6599 19.1426 14.9325 18.9881L14.9391 18.9875C16.9209 18.7578 18.8962 18.574 20.8716 18.4362ZM47.0625 25.4345L33.0187 35.315C32.1351 35.9372 31.0807 36.2711 30 36.2711C28.9193 36.2711 27.8649 35.9372 26.9812 35.315L12.9375 25.4364V43.6126L22.8206 36.6603C23.4112 36.2436 24.2316 36.386 24.645 36.9786C25.065 37.5705 24.9206 38.3902 24.33 38.8069L14.3222 45.8465C14.6044 45.9961 14.9194 46.0972 15.2475 46.1372C25.1241 47.2745 34.9613 47.2745 44.7525 46.1365C45.0744 46.0987 45.3862 46 45.6712 45.8458L35.67 38.8069C35.3859 38.6061 35.1932 38.3007 35.1341 37.9579C35.075 37.6151 35.1545 37.2628 35.355 36.9786C35.4538 36.8377 35.5793 36.7177 35.7245 36.6255C35.8697 36.5332 36.0317 36.4705 36.2012 36.4409C36.3706 36.4114 36.5443 36.4155 36.7121 36.4532C36.88 36.4908 37.0388 36.5612 37.1794 36.6603L47.0559 43.61V43.5332C47.0625 38.8935 47.0625 30.6339 47.0625 25.4345ZM20.9438 21.0625C19.0472 21.1971 17.1506 21.3743 15.2475 21.5948C14.9004 21.6359 14.5651 21.7467 14.2618 21.9205C13.9584 22.0942 13.6933 22.3274 13.4822 22.606L28.4906 33.1684C29.3962 33.8063 30.6038 33.8063 31.5094 33.1684L46.5244 22.6047C46.3115 22.3264 46.045 22.0936 45.7407 21.9199C45.4364 21.7462 45.1004 21.6352 44.7525 21.5934C42.8559 21.3749 40.9594 21.1984 39.0562 21.0638C38.3081 25.3905 34.5347 28.6875 30 28.6875C25.4653 28.6875 21.6853 25.3898 20.9438 21.0625ZM30 12.9375C33.6225 12.9375 36.5625 15.8782 36.5625 19.5C36.5625 23.1218 33.6225 26.0625 30 26.0625C26.3775 26.0625 23.4375 23.1218 23.4375 19.5C23.4375 15.8782 26.3775 12.9375 30 12.9375ZM25.8066 21.0803L27.7556 23.049C27.8776 23.172 28.0227 23.2696 28.1825 23.3363C28.3423 23.403 28.5138 23.4375 28.687 23.4377C28.8601 23.438 29.0317 23.404 29.1917 23.3377C29.3517 23.2715 29.4971 23.1742 29.6194 23.0516L34.1934 18.4579C34.7053 17.9447 34.7053 17.1126 34.1869 16.6013C34.0653 16.4797 33.921 16.3833 33.762 16.3176C33.6031 16.252 33.4328 16.2183 33.2609 16.2186C33.0889 16.2189 32.9187 16.2532 32.7601 16.3194C32.6014 16.3857 32.4574 16.4826 32.3363 16.6046L28.6875 20.2632L27.6703 19.2323C27.5489 19.1097 27.4046 19.0123 27.2455 18.9456C27.0865 18.8788 26.9158 18.8441 26.7434 18.8434C26.5709 18.8426 26.3999 18.8759 26.2403 18.9413C26.0807 19.0067 25.9355 19.1029 25.8131 19.2244C25.6901 19.3454 25.5922 19.4896 25.5252 19.6486C25.4582 19.8076 25.4234 19.9784 25.4228 20.1509C25.4222 20.3235 25.4558 20.4945 25.5217 20.654C25.5875 20.8135 25.6844 20.9584 25.8066 21.0803Z" fill="white"/>
<defs>
<linearGradient id="paint0_linear_15_425" x1="60" y1="2.68156" x2="116.648" y2="57.3184" gradientUnits="userSpaceOnUse">
<stop stop-color="#19CBCB"/>
<stop offset="1" stop-color="#048EC3"/>
</linearGradient>
</defs>
</svg>
